<svg width="35" height="35" viewBox="0 0 35 35" fill="none" xmlns="http://www.w3.org/2000/svg">
<circle cx="17.3821" cy="17.382" r="16" stroke="#0063A8" stroke-width="2.76396" stroke-dasharray="0.98 8.39"/>
<mask id="path-2-inside-1_4492_1164" fill="white">
<path fill-rule="evenodd" clip-rule="evenodd" d="M16.771 6.19437L9.86521 19.3492C9.51566 20.015 9.99858 20.814 10.7506 20.814H14.4335L14.2536 27.3271C14.195 29.4453 17.0387 30.1882 18.0236 28.312L24.9294 15.1572C25.279 14.4913 24.796 13.6924 24.044 13.6924H20.3611L20.5411 7.17923C20.5996 5.06106 17.7559 4.3182 16.771 6.19437Z"/>
</mask>
<path fill-rule="evenodd" clip-rule="evenodd" d="M16.771 6.19437L9.86521 19.3492C9.51566 20.015 9.99858 20.814 10.7506 20.814H14.4335L14.2536 27.3271C14.195 29.4453 17.0387 30.1882 18.0236 28.312L24.9294 15.1572C25.279 14.4913 24.796 13.6924 24.044 13.6924H20.3611L20.5411 7.17923C20.5996 5.06106 17.7559 4.3182 16.771 6.19437Z" fill="#FFDF4E"/>
<path d="M9.86521 19.3492L11.094 19.9943H11.094L9.86521 19.3492ZM16.771 6.19437L17.9998 6.83946V6.83946L16.771 6.19437ZM14.4335 20.814L15.8208 20.8523L15.8603 19.4261H14.4335V20.814ZM14.2536 27.3271L12.8662 27.2888V27.2888L14.2536 27.3271ZM18.0236 28.312L16.7948 27.6669V27.6669L18.0236 28.312ZM24.9294 15.1572L26.1582 15.8023V15.8023L24.9294 15.1572ZM20.3611 13.6924L18.9738 13.6541L18.9344 15.0802H20.3611V13.6924ZM20.5411 7.17923L21.9284 7.21756V7.21756L20.5411 7.17923ZM11.094 19.9943L17.9998 6.83946L15.5422 5.54928L8.63639 18.7041L11.094 19.9943ZM10.7506 19.4261C11.0423 19.4261 11.2296 19.736 11.094 19.9943L8.63639 18.7041C7.8017 20.2941 8.95485 22.2018 10.7506 22.2018V19.4261ZM14.4335 19.4261H10.7506V22.2018H14.4335V19.4261ZM15.6409 27.3655L15.8208 20.8523L13.0462 20.7757L12.8662 27.2888L15.6409 27.3655ZM16.7948 27.6669C16.4933 28.2411 15.623 28.0138 15.6409 27.3655L12.8662 27.2888C12.7671 30.8768 17.5841 32.1352 19.2524 28.9571L16.7948 27.6669ZM23.7006 14.5121L16.7948 27.6669L19.2524 28.9571L26.1582 15.8023L23.7006 14.5121ZM24.044 15.0802C23.7523 15.0802 23.565 14.7704 23.7006 14.5121L26.1582 15.8023C26.9929 14.2123 25.8398 12.3045 24.044 12.3045V15.0802ZM20.3611 15.0802H24.044V12.3045H20.3611V15.0802ZM19.1537 7.1409L18.9738 13.6541L21.7484 13.7307L21.9284 7.21756L19.1537 7.1409ZM17.9998 6.83946C18.3013 6.26523 19.1716 6.49257 19.1537 7.1409L21.9284 7.21756C22.0275 3.62955 17.2106 2.37118 15.5422 5.54928L17.9998 6.83946Z" fill="#0063A8" mask="url(#path-2-inside-1_4492_1164)"/>
</svg>
